<svg id="Layer_1" data-name="Layer 1" xmlns="http://www.w3.org/2000/svg" viewBox="0 0 120.4 119.65"><defs><style>.cls-1{fill:#fff;}</style></defs><title>google+logo_white</title><path class="cls-1" d="M113.29,0H7.11A7.11,7.11,0,0,0,0,7.11V112.53a7.11,7.11,0,0,0,7.11,7.11H113.29a7.11,7.11,0,0,0,7.11-7.11V7.11A7.11,7.11,0,0,0,113.29,0ZM48.06,80.84c-19.66,0-28-22-13.64-36.36,10.5-10.5,27.28,0,27.28,0l-5.28,5.22S54.15,47,47.49,47c-13,0-12.63,13.16-12.63,13.16s-0.79,12.7,13,13.09c11,0,12.11-8.94,12.11-8.94H48v-7H67.63C68.09,62.23,67.72,80.84,48.06,80.84ZM92.8,63H86.91v5.87H81.23V63H75.34V57.28h5.89V51.36h5.69v5.91H92.8V63Z"/></svg>