<svg id="Layer_1" data-name="Layer 1" xmlns="http://www.w3.org/2000/svg" viewBox="0 0 503.1 503.11"><defs><style>.cls-1{fill:#fff;}</style></defs><title>Instalogo_White</title><path class="cls-1" d="M502,356.82c-1,11.74-1.93,23.55-4,35.12-4.77,26.15-16.14,49.25-34.78,68.35a124.83,124.83,0,0,1-39.61,27.65c-21,9.16-42.94,13.39-65.69,14.07-11.26.34-22.52,0.66-33.77,1.05-0.68,0-146.34.08-148,0-17.28-1-34.6-1.63-51.84-3.12a136.41,136.41,0,0,1-56.78-18.21,124.2,124.2,0,0,1-49-51.14C6.92,408.37,1.72,384.34,1.06,359.32,0.79,348.9.42,338.47,0,328c0-.68,0-153,0-154,0.4-9.42.35-18.88,1.13-28.27,0.94-11.41,2-22.87,4-34.13C11,78.92,26.71,51.74,52.73,31c24.64-19.61,53.8-27.34,84.55-29.89C148.65,0.2,160.12.4,171.54,0c0.85,0,187.65.69,201.08,2.25a216.72,216.72,0,0,1,35.4,7c29.05,8.44,52.21,25.61,69.19,50.58,16.53,24.31,23.18,51.92,24.79,80.9,0.63,11.41.71,22.85,1.1,34.27M251.58,457c0-.33,62.2-0.85,93.29-1.09A260.32,260.32,0,0,0,372,454c23.65-2.66,44.32-11.28,60.49-29.64,8.22-9.33,13.7-20,17.49-31.49,5.69-17.33,6.19-35.5,7-53.49,0.88-19.24,1.07-38.53,1.05-57.79,0-22.27-.58-44.53-0.93-66.8-0.32-20.27-.27-40.55-1.15-60.79-0.52-12.09-1.39-24.37-4.07-36.12-7.22-31.65-26-53.44-57.28-64.16-17.21-5.9-35.08-6.6-52.85-7.53-21.39-1.11-42.86-1.16-64.29-1.12-33.93.07-67.87,0.34-101.79,1-15.15.31-30.32,1.37-45.39,3C106.18,51.69,85.35,61,69.36,80c-7.54,9-12.52,19.17-16.16,30-5.81,17.31-6.33,35.5-7,53.48-1,25.91-1.07,51.86-1.09,77.79q0,33.9,1,67.79c0.65,21.64,1.4,43.31,3.11,64.88a84.44,84.44,0,0,0,13.86,40.35c11.75,17.62,27.75,29.75,48.45,35.81,18.39,5.38,37.26,6.17,56.05,6.68C195.57,457.61,223.58,457,251.58,457Z"/><path class="cls-1" d="M381,251.71c1.92,68.66-57.75,133.8-137.6,129.47C182.7,377.88,117.17,325.29,122,242c3.47-60.08,56.49-125.61,140.18-120C323.09,126.06,382.38,179,381,251.71ZM252.25,168c-47.16-.19-83,37.77-84.11,80.94A83.46,83.46,0,1,0,335,253.84C336.18,205.66,297.06,168.25,252.25,168Z"/><path class="cls-1" d="M386.08,86c17.82,0.74,30.78,13.2,30.78,31s-13.12,30.81-30.82,30.8S355.24,134.7,355.26,117,368.25,86.76,386.08,86Z"/></svg>