<svg xmlns="http://www.w3.org/2000/svg" viewBox="0 0 228.1 54.42"><title>Asset 1</title><g id="Layer_2" data-name="Layer 2"><g id="Layer_1-2" data-name="Layer 1"><path d="M28.85,9.63q.29.1.29.67t0,1c0,.3,0,.63-.07,1s-.06.52-.07.79,0,.55-.07.84,0,.7,0,1.22-.06,1.07-.1,1.63-.07,1.07-.12,1.54-.07.78-.07.94,0,.53-.14,1.49-.21,2.17-.34,3.62-.26,3-.41,4.78L27.26,34q-.19,2.28-.31,4t-.12,2.09q0,.39,0,.79t-.07.84a2,2,0,0,0,0,.48q0,.48-.1.86t-.1.72l0,0-.29,1.82q-.14.91-.34,1.82a1.81,1.81,0,0,0-.14.38,3.46,3.46,0,0,1-.14.43,4.15,4.15,0,0,0-.14.41c0,.11-.06.25-.1.41a.7.7,0,0,1-.41.55,5,5,0,0,1-1,.22l-.14,0a2.38,2.38,0,0,1-1.34-.1l-.14-.1-.14,0q-1.15.1-2.83-3.67a59.48,59.48,0,0,1-3.26-12l-.58-2.74-1.2,4.22-.1-.48L13.58,38v0a4.45,4.45,0,0,1-.12.6c-.08.34-.18.75-.31,1.25s-.28,1-.46,1.66-.38,1.23-.6,1.87a16.8,16.8,0,0,1-1.8,3.82q-.94,1.37-1.75,1.46l-.1,0a2,2,0,0,1-1.82-.34,5.1,5.1,0,0,1-1.68-2.06,19.43,19.43,0,0,1-1.22-3.12,28.67,28.67,0,0,1-.79-3.34q-.29-1.66-.43-2.71l0-.34q-.53-3.79-1-7.58t-.77-7Q.38,19.14.22,17T0,14.29a4.11,4.11,0,0,1,.84-1.94,3.83,3.83,0,0,1,1.27-1A3.73,3.73,0,0,1,3.36,11l.82,0H4.8l.22,0,.22,0a.66.66,0,0,0,.29,0q1,0,1.9,2.26A32.78,32.78,0,0,1,9,18.92q.7,3.53,1.18,8t.67,9L11,39.73l1.15-3.65q.43-1.34,1-3.12t1.08-3.41l.91-2.81.43-1.32q.14-.34.41-.84a4.62,4.62,0,0,1,.65-.94,1,1,0,0,1,.5-.24.6.6,0,0,1,.26,0,1.85,1.85,0,0,1,.72.84,7.67,7.67,0,0,1,.58,1.56q.24.91.41,1.9t.26,1.85a9.65,9.65,0,0,0,.1,1l.22,1.7q.12,1,.26,1.94t.24,1.61q.43,2.83.62,4t.29,1.58h0L22.75,47,23,43.47s0-.47.1-1.32.16-2,.29-3.36.28-3,.46-4.78.36-3.64.55-5.54.4-3.81.62-5.71.45-3.66.67-5.28.44-3,.65-4.2a14.15,14.15,0,0,1,.6-2.5l0-.1a.09.09,0,0,1,0-.07.1.1,0,0,0,0-.07,1.93,1.93,0,0,1,.77-.65A1.44,1.44,0,0,1,28.85,9.63Z"/><path d="M43.25,30.66a1,1,0,0,1,.72.53,1,1,0,0,1,.1.86q0,.24-.31,1.08T43,35.07A23.53,23.53,0,0,1,41.9,37.4a17.2,17.2,0,0,1-1.54,2.33,10.26,10.26,0,0,1-1.92,1.9,5.08,5.08,0,0,1-2.3,1h-.34a5.27,5.27,0,0,1-1,0,9.7,9.7,0,0,1-1.06-.17,3.26,3.26,0,0,1-1.1-.46A8.3,8.3,0,0,1,31,41a7.89,7.89,0,0,1-1.51-1.63,9.33,9.33,0,0,1-1.44-4.08,18.49,18.49,0,0,1,0-3.26q.1-.82.24-1.63a15,15,0,0,1,.38-1.63,23.83,23.83,0,0,1,.91-2.83q.53-1.25,1.39-2.83A18.87,18.87,0,0,1,33.17,20v0l.17-.19.17-.19v0a3.12,3.12,0,0,1,1.73-1.06,3.9,3.9,0,0,1,1.78,0,3.81,3.81,0,0,1,1.42.7,1.76,1.76,0,0,1,.7,1,.49.49,0,0,1,0,.22.47.47,0,0,0,0,.22A7.58,7.58,0,0,1,39.29,23a14.44,14.44,0,0,1-.55,2.42q-.53,1.68-1.1,3.34t-1.2,3.34a11.65,11.65,0,0,1-.7,1.58q-.41.77-.89,1.54a2.09,2.09,0,0,0-.24,1.13q0,.55.14,1.08t.22.77q.12.39.26.77a2.51,2.51,0,0,0,.55.82q.41.43,1.13,0a5.74,5.74,0,0,0,.86-.72,1.36,1.36,0,0,0,.24-.29,13.42,13.42,0,0,0,1.2-1.63,19.72,19.72,0,0,0,1.06-1.9q.48-1,.86-2a19.38,19.38,0,0,0,.62-1.85,1,1,0,0,1,.53-.72A1.23,1.23,0,0,1,43.25,30.66Zm-9.07-4.13a9.62,9.62,0,0,0-.1,1.37c0,.46,0,.87,0,1.22l.1,1.25a8.24,8.24,0,0,0,1.06-2.09q.43-1.22.72-2.35t.43-2a9.81,9.81,0,0,0,.14-1.13q0-1.1-.17-1.3t-.46.14a3.53,3.53,0,0,0-.53.55,5.07,5.07,0,0,0-.58,1,6.8,6.8,0,0,0-.48,1.46,11.55,11.55,0,0,0-.24,2Z"/><path d="M57.65,30.56a1.21,1.21,0,0,1,.84.41,1.07,1.07,0,0,1,.26.84q0,.48-.19,2.06t-.48,3.74q-.34,2.16-.89,4.63A44.41,44.41,0,0,1,55.85,47a20.49,20.49,0,0,1-1.92,4.13,7.42,7.42,0,0,1-2.57,2.64,4.81,4.81,0,0,1-2.3.62,7.17,7.17,0,0,1-3.7-2.35A13.33,13.33,0,0,1,43.08,48a23.22,23.22,0,0,1-1.18-5,47.78,47.78,0,0,1-.38-5q0-.38,0-.77c0-.26,0-.51,0-.77V34.74q0-.81.1-1.63t.07-1.42c0-.5,0-.94.07-1.32a2.25,2.25,0,0,0,0-.43v-.29A21.16,21.16,0,0,1,42,26.79q.19-1.42.34-2.81a40.46,40.46,0,0,1,.74-4.63q.5-2.28,1.18-4.58.43-1.54.84-3a21.38,21.38,0,0,1,1-3A23.93,23.93,0,0,1,48,5.1a16.7,16.7,0,0,1,2.62-3.24,3.63,3.63,0,0,1,.65-.43l1.06-.6q.55-.31,1-.55A2.31,2.31,0,0,1,54,0a1.63,1.63,0,0,1,.5,0,3.37,3.37,0,0,1,.65.12,2.94,2.94,0,0,1,.6.24,1,1,0,0,1,.36.29q.24.24.46.5a1.78,1.78,0,0,0,.46.41,2.45,2.45,0,0,1,1.27,1.27,4.43,4.43,0,0,1,.22,1.7A11.4,11.4,0,0,1,58,7.45a18.65,18.65,0,0,1-1.08,2.76,21,21,0,0,1-1.15,2.4l-1,1.85q-.5.89-1,1.85l-.58,1-.58,1q-.53.86-1,1.7t-1,1.66q-.24.38-.53.79l-.58.79a2.37,2.37,0,0,0-.6,1.18q-.12.65-.22,1.32t-.14,1.68q0,.86-.14,1.68c-.06.45-.14.91-.24,1.39A7.11,7.11,0,0,0,48,31.81q0,1.2,0,2.38t.14,2.38A31.33,31.33,0,0,0,48.43,40q.1.82.22,1.66t.26,1.66q.24,1.1.46,2.16t.46,2.16c.06.19.12.39.17.6s.1.42.17.65a5,5,0,0,0,.34.72,1.1,1.1,0,0,0,.43.46.67.67,0,0,0,.53,0,1.44,1.44,0,0,0,.62-.58q.29-.48.58-1c.19-.37.38-.79.58-1.27a6.33,6.33,0,0,1,.19-.65l.19-.5q.38-1.06.72-2.33T55,40.88q.38-1.78.65-3.43t.41-2.93q.14-1.27.29-2.86a1.12,1.12,0,0,1,.41-.82A1.38,1.38,0,0,1,57.65,30.56ZM50.88,14.77q-.24,1.1-.48,2.16t-.48,2.16h0c.16-.19.31-.38.46-.58a6,6,0,0,0,.41-.62l1.63-2.81,1.63-2.86q1-1.68,1.73-3.38a13.75,13.75,0,0,0,1.06-3.58A1.86,1.86,0,0,0,55.63,3a.51.51,0,0,0-.77.29c-.13.19-.26.38-.41.58A4.93,4.93,0,0,1,54,4.4a7.94,7.94,0,0,1-.72.89,2.82,2.82,0,0,0-.58.89,20.47,20.47,0,0,0-.62,2.3q-.24,1.15-.48,2.35a19.36,19.36,0,0,0-.38,2Q51.07,13.81,50.88,14.77Z"/><path d="M71,30.66a1.14,1.14,0,0,1,.79.5A1.16,1.16,0,0,1,72,32q-.1.29-.36,1.22t-.74,2.21q-.48,1.27-1.15,2.71a18,18,0,0,1-1.58,2.74,9.65,9.65,0,0,1-2.28,2.47,9.12,9.12,0,0,1-2,1.13,4.67,4.67,0,0,1-2.06.29,6.48,6.48,0,0,1-1.68-.14,4,4,0,0,1-1.85-1,6.59,6.59,0,0,1-1.58-2.3,12.57,12.57,0,0,1-.89-4.18v0a14,14,0,0,1,0-2.83,22.53,22.53,0,0,1,.77-5A19.64,19.64,0,0,1,58,25.64a13.77,13.77,0,0,1,1.49-2.35,6.25,6.25,0,0,1,1-1,3.11,3.11,0,0,1,1.13-.46,4.8,4.8,0,0,1,1.8-.1,4.1,4.1,0,0,1,1.87.77,4,4,0,0,1,1.39,2.09q.1.43.14.82a1.49,1.49,0,0,1,0,.65.58.58,0,0,1-.38.41.56.56,0,0,1-.53-.07,1.79,1.79,0,0,1-.43-.43,3.52,3.52,0,0,1-.31-.5,1.15,1.15,0,0,1-.12-.29.93.93,0,0,0-.62-.46.66.66,0,0,0-.67.31,7.74,7.74,0,0,0-1.15,2,12.19,12.19,0,0,0-.74,2.42,13.42,13.42,0,0,0-.22,3.43,36,36,0,0,0,.6,6.29q.5,2.4,1.46,2.45a2,2,0,0,0,1.2-.38,7.73,7.73,0,0,0,1.75-2.09A24.65,24.65,0,0,0,68,36.34a26.46,26.46,0,0,0,1-2.71q.41-1.3.6-2.06a1.09,1.09,0,0,1,.53-.74A1.23,1.23,0,0,1,71,30.66Z"/><path d="M88.32,30.85a1.06,1.06,0,0,1,.48.72,1,1,0,0,1-.19.86,5.86,5.86,0,0,1-2.47,2.16,7,7,0,0,1-2.71.58A7.77,7.77,0,0,1,81.89,35q0,.63-.07,1.1a5.56,5.56,0,0,1-.07.72q-.14,1-.36,2.33a24.67,24.67,0,0,1-.58,2.62A19.58,19.58,0,0,1,80,44.17a4.23,4.23,0,0,1-1.08,1.61,4.46,4.46,0,0,1-3.55,1.73l-.58,0-.53,0A2.86,2.86,0,0,1,72.17,47a6.84,6.84,0,0,1-1.46-1.63,7.49,7.49,0,0,1-1-2.18q-.29-1.13-.48-2.33Q69.12,40,69,39.18t-.17-1.66a14.89,14.89,0,0,1,0-2.93q.14-1.1.31-2.14t.36-2.14a9.78,9.78,0,0,1,.26-1.15q.17-.58.36-1.1.29-.91.62-1.87a1.77,1.77,0,0,1,.72-.48,2.56,2.56,0,0,1,1-.12,3.81,3.81,0,0,1,1.42.41,1.74,1.74,0,0,0,.43-.38.84.84,0,0,1,.26-.31,2.82,2.82,0,0,1,.36-.22q.67-.48,1,.14l1.13-.17A8.74,8.74,0,0,1,78.19,25a2.93,2.93,0,0,1,2.06.67,4.66,4.66,0,0,1,1.3,1.68,2.69,2.69,0,0,1,.19.67q0,.34.1.72.14.82.29,1.73a4.72,4.72,0,0,0,0,.67q0,.29,0,.7c0,.27,0,.55,0,.84a2.45,2.45,0,0,0,.55.14,4.22,4.22,0,0,0,.65,0,3.68,3.68,0,0,0,3.46-1.73,1.23,1.23,0,0,1,.77-.48A1,1,0,0,1,88.32,30.85ZM76.32,44a.94.94,0,0,0,.72-.41,4.48,4.48,0,0,0,.62-1.08A11.83,11.83,0,0,0,78.19,41q.24-.89.43-1.85.48-2.21.82-5l-.91-.48q-.38-.24-.82-.55a6.62,6.62,0,0,1-.82-.7s0,0,0,0,0,0,0,0a4.91,4.91,0,0,1-.72-.94q-.34-.55-.67-1a10,10,0,0,1-.72-1.15,69,69,0,0,0-.53,7.15q0,1.34.07,2.66a16.35,16.35,0,0,0,.29,2.38,6.19,6.19,0,0,0,.6,1.75,1.56,1.56,0,0,0,1.06.84Zm.91-15.84a1.42,1.42,0,0,0,.12,1.25,7.89,7.89,0,0,0,.74,1.3,3.08,3.08,0,0,0,.53.58l.53.43a2.94,2.94,0,0,0,.53.34,4.79,4.79,0,0,0,0-.67q0-.29-.1-.65a5.05,5.05,0,0,0-.14-.7,3.06,3.06,0,0,0-.36-1,5.49,5.49,0,0,0-.65-.89L77.9,28A.46.46,0,0,0,77.23,28.21Z"/><path d="M116.21,30.56a1,1,0,0,1,.72.5,1.23,1.23,0,0,1,.14.89,19.81,19.81,0,0,1-1.2,3.94,12.25,12.25,0,0,1-1.58,2.71,6.17,6.17,0,0,1-1.78,1.58,3.67,3.67,0,0,1-1.78.5h-.43a3.25,3.25,0,0,1-1.85-1.08,4.81,4.81,0,0,1-1.13-2.76,16.89,16.89,0,0,1-.17-2q0-1,0-1.75t.07-1.78l-.38.58a2.38,2.38,0,0,0-.29.58q-.67,1.49-1.32,3t-1.32,3a1.32,1.32,0,0,1-.46.43,2.28,2.28,0,0,1-.82.34,2,2,0,0,1-1-.07,2,2,0,0,1-1-.74,1.41,1.41,0,0,1-.38-1,5.87,5.87,0,0,1,.1-1.06l.12-1q.07-.58.12-1.15t.07-1a1.89,1.89,0,0,0,0-.58l-.65.82q-.5.63-1.1,1.44t-1.2,1.68A12.31,12.31,0,0,0,96.81,38L96,39.66l-.77,1.7q-.58,1.49-1.13,3t-1.13,3a3.12,3.12,0,0,1-.26.6,3.71,3.71,0,0,1-.58.79,2.69,2.69,0,0,1-.94.62,2.63,2.63,0,0,1-1.34.14,3.92,3.92,0,0,1-.77-.12,3.63,3.63,0,0,1-1.1-.48,4,4,0,0,1-1.08-1.06,4.34,4.34,0,0,1-.7-1.85,12.61,12.61,0,0,1-.17-2.09q0-1.37,0-3t.12-3.31q.07-1.7.17-3.14t.17-2.4q.07-1,.07-1.1,0-.86.14-1.9T87,27q.12-1,.29-1.78A4.49,4.49,0,0,1,87.69,24a3.11,3.11,0,0,1,.58-.82,3.62,3.62,0,0,1,.7-.55,3.35,3.35,0,0,1,.65-.31,1.54,1.54,0,0,1,.43-.1,7.49,7.49,0,0,1,1.25.26,5,5,0,0,1,1.39.84,5.37,5.37,0,0,1,1.08,1,2.3,2.3,0,0,1,.5,1.37,4.56,4.56,0,0,0,.07.79,2.66,2.66,0,0,1,0,.79q-.1.53-.24,1t-.24,1a10.1,10.1,0,0,0-.22,1.1q-.12.77-.22,1.56t-.24,2a9,9,0,0,1,.6-.72,8.87,8.87,0,0,0,.6-.72,20,20,0,0,1,2.38-2.28,12.2,12.2,0,0,1,2.81-1.7,6.43,6.43,0,0,1,1.82-.48,2.74,2.74,0,0,1,1.87.58,1.58,1.58,0,0,1,.53.74,6,6,0,0,1,.29,1q.1.5.14.94c0,.29,0,.45,0,.48a6,6,0,0,0,.65-1q.46-.79,1.08-1.68t1.32-1.73a4.44,4.44,0,0,1,1.37-1.18A2.59,2.59,0,0,1,110.4,26a1,1,0,0,1,.72.65,1.6,1.6,0,0,1,.14,1q-.1.48-.29,1.68T110.56,32q-.22,1.39-.41,2.74t-.24,2.11q0,1.49.72,1.58a1.35,1.35,0,0,0,.82-.26,4.24,4.24,0,0,0,1.13-1.1,10.86,10.86,0,0,0,1.2-2.16,17.88,17.88,0,0,0,1-3.38,1.11,1.11,0,0,1,.5-.74A1.17,1.17,0,0,1,116.21,30.56Z"/><path d="M129.74,30.66a1,1,0,0,1,.72.53,1,1,0,0,1,.1.86q0,.24-.31,1.08t-.72,1.94a23.53,23.53,0,0,1-1.13,2.33,17.2,17.2,0,0,1-1.54,2.33,10.26,10.26,0,0,1-1.92,1.9,5.08,5.08,0,0,1-2.3,1h-.34a5.27,5.27,0,0,1-1,0,9.7,9.7,0,0,1-1.06-.17,3.26,3.26,0,0,1-1.1-.46,8.3,8.3,0,0,1-1.61-1A7.89,7.89,0,0,1,116,39.34a9.33,9.33,0,0,1-1.44-4.08,18.49,18.49,0,0,1,0-3.26q.1-.82.24-1.63a15,15,0,0,1,.38-1.63,23.83,23.83,0,0,1,.91-2.83q.53-1.25,1.39-2.83A18.87,18.87,0,0,1,119.66,20v0l.17-.19.17-.19v0a3.12,3.12,0,0,1,1.73-1.06,3.9,3.9,0,0,1,1.78,0,3.81,3.81,0,0,1,1.42.7,1.76,1.76,0,0,1,.7,1,.49.49,0,0,1,0,.22.47.47,0,0,0,0,.22,7.58,7.58,0,0,1,.07,2.47,14.44,14.44,0,0,1-.55,2.42q-.53,1.68-1.1,3.34t-1.2,3.34a11.65,11.65,0,0,1-.7,1.58q-.41.77-.89,1.54a2.09,2.09,0,0,0-.24,1.13q0,.55.14,1.08t.22.77q.12.39.26.77a2.51,2.51,0,0,0,.55.82q.41.43,1.13,0a5.74,5.74,0,0,0,.86-.72,1.36,1.36,0,0,0,.24-.29,13.42,13.42,0,0,0,1.2-1.63,19.72,19.72,0,0,0,1.06-1.9q.48-1,.86-2a19.38,19.38,0,0,0,.62-1.85,1,1,0,0,1,.53-.72A1.23,1.23,0,0,1,129.74,30.66Zm-9.07-4.13a9.62,9.62,0,0,0-.1,1.37c0,.46,0,.87,0,1.22l.1,1.25a8.24,8.24,0,0,0,1.06-2.09q.43-1.22.72-2.35t.43-2a9.81,9.81,0,0,0,.14-1.13q0-1.1-.17-1.3t-.46.14a3.53,3.53,0,0,0-.53.55,5.07,5.07,0,0,0-.58,1,6.8,6.8,0,0,0-.48,1.46,11.55,11.55,0,0,0-.24,2Z"/><path d="M165.45,41.55a26,26,0,0,1-.58,4.85,5.2,5.2,0,0,1-1,2.3,1.39,1.39,0,0,1-1.15.5,1.8,1.8,0,0,1-1-.5A4.55,4.55,0,0,1,161,48a7.77,7.77,0,0,1-.94-2q-.31-1-.55-2.14t-.41-2.5q-.17-1.25-.26-2.5-.1-1.68-.14-3.29t-.1-3.24a2.11,2.11,0,0,0,0-.34,1.69,1.69,0,0,1,0-.29l-1.61.58a9.6,9.6,0,0,1-1.61.43q-.86.14-1,.65a6.69,6.69,0,0,0-.26,1.18q-.1,1.1-.24,2.21T153.6,39l-.22,1.1q-.17.86-.38,2t-.48,2.45q-.26,1.3-.5,2.4t-.41,1.85q-.17.74-.17.79a6.15,6.15,0,0,1-.36.89,3,3,0,0,1-2.52,1.85,1.71,1.71,0,0,1-1.44-.46,2.38,2.38,0,0,1-.72-1.22q-.24-1.1-.43-2.23t-.29-2.28q-.14-1.25-.19-2.52t-.1-2.57q0-1.25-.1-2.52t0-2.52q0-1.63.17-3.22t.22-3.22q.1-1.25.14-2.5t.14-2.5q.1-1.1.17-2.16t.17-2.11q.14-1.2.29-2.35t.34-2.3l.19-1.08q.1-.55.19-1.08a.84.84,0,0,0,0-.53q-.07-.29.31-.48a3,3,0,0,0,.53-.34,1.71,1.71,0,0,1,.53-.29,4.14,4.14,0,0,1,1.54,0q.48.14,1,.34a8.16,8.16,0,0,1,.91.43A3.45,3.45,0,0,1,154,15.82q0,1.25.07,2.52t.12,2.57q0,.91.12,1.8t.17,1.8a8.56,8.56,0,0,1,0,1.1c0,.38,0,.75,0,1.1v1.44q0,.72,0,1.44,0,.48.48.34.86-.29,1.73-.53t1.73-.53a.41.41,0,0,0,.34-.43l.19-2.83q.1-1.44.19-2.83,0-.77.14-1.51l.19-1.51c0-.19.06-.39.07-.6s0-.41,0-.6q.19-1.58.48-2.88a12.26,12.26,0,0,1,.67-2.14,2.36,2.36,0,0,1,1.06-1.32l.19-.1a1.28,1.28,0,0,1,1.22.41,4.39,4.39,0,0,1,.94,1.58,15.59,15.59,0,0,1,.65,2.35,21.57,21.57,0,0,1,.36,2.66q.1,1.39.12,3.53t0,4.2v5.35a.83.83,0,0,0,0,.26,1.11,1.11,0,0,0,0,.22,1.1,1.1,0,0,1,0,.22v.53Q165.6,38.43,165.45,41.55Z"/><path d="M185.8,30.85a1.06,1.06,0,0,1,.48.72,1,1,0,0,1-.19.86,5.86,5.86,0,0,1-2.47,2.16,7,7,0,0,1-2.71.58,7.77,7.77,0,0,1-1.54-.14q0,.63-.07,1.1a5.56,5.56,0,0,1-.07.72q-.14,1-.36,2.33a24.67,24.67,0,0,1-.58,2.62,19.58,19.58,0,0,1-.82,2.38,4.23,4.23,0,0,1-1.08,1.61,4.46,4.46,0,0,1-3.55,1.73l-.58,0-.53,0a2.86,2.86,0,0,1-2.09-.58,6.84,6.84,0,0,1-1.46-1.63,7.49,7.49,0,0,1-1-2.18q-.29-1.13-.48-2.33-.14-.82-.26-1.66t-.17-1.66a14.89,14.89,0,0,1,0-2.93q.14-1.1.31-2.14t.36-2.14a9.78,9.78,0,0,1,.26-1.15q.17-.58.36-1.1.29-.91.62-1.87a1.77,1.77,0,0,1,.72-.48,2.56,2.56,0,0,1,1-.12,3.81,3.81,0,0,1,1.42.41,1.74,1.74,0,0,0,.43-.38.84.84,0,0,1,.26-.31,2.82,2.82,0,0,1,.36-.22q.67-.48,1,.14l1.13-.17a8.74,8.74,0,0,1,1.13-.07,2.93,2.93,0,0,1,2.06.67,4.66,4.66,0,0,1,1.3,1.68,2.69,2.69,0,0,1,.19.67q0,.34.1.72.14.82.29,1.73a4.72,4.72,0,0,0,0,.67q0,.29,0,.7c0,.27,0,.55,0,.84a2.45,2.45,0,0,0,.55.14,4.22,4.22,0,0,0,.65,0,3.68,3.68,0,0,0,3.46-1.73,1.23,1.23,0,0,1,.77-.48A1,1,0,0,1,185.8,30.85ZM173.8,44a.94.94,0,0,0,.72-.41,4.48,4.48,0,0,0,.62-1.08,11.83,11.83,0,0,0,.53-1.56q.24-.89.43-1.85.48-2.21.82-5l-.91-.48q-.38-.24-.82-.55a6.62,6.62,0,0,1-.82-.7s0,0,0,0,0,0,0,0a4.91,4.91,0,0,1-.72-.94q-.34-.55-.67-1a10,10,0,0,1-.72-1.15,69,69,0,0,0-.53,7.15q0,1.34.07,2.66a16.35,16.35,0,0,0,.29,2.38,6.19,6.19,0,0,0,.6,1.75,1.56,1.56,0,0,0,1.06.84Zm.91-15.84a1.42,1.42,0,0,0,.12,1.25,7.89,7.89,0,0,0,.74,1.3,3.08,3.08,0,0,0,.53.58l.53.43a2.94,2.94,0,0,0,.53.34,4.79,4.79,0,0,0,0-.67q0-.29-.1-.65a5.05,5.05,0,0,0-.14-.7,3.06,3.06,0,0,0-.36-1,5.49,5.49,0,0,0-.65-.89l-.48-.24A.46.46,0,0,0,174.72,28.21Z"/><path d="M213.69,30.56a1,1,0,0,1,.72.5,1.23,1.23,0,0,1,.14.89,19.81,19.81,0,0,1-1.2,3.94,12.25,12.25,0,0,1-1.58,2.71A6.17,6.17,0,0,1,210,40.18a3.67,3.67,0,0,1-1.78.5h-.43a3.25,3.25,0,0,1-1.85-1.08,4.81,4.81,0,0,1-1.13-2.76,16.89,16.89,0,0,1-.17-2q0-1,0-1.75t.07-1.78l-.38.58a2.38,2.38,0,0,0-.29.58q-.67,1.49-1.32,3t-1.32,3a1.32,1.32,0,0,1-.46.43,2.28,2.28,0,0,1-.82.34,2,2,0,0,1-1-.07,2,2,0,0,1-1-.74,1.41,1.41,0,0,1-.38-1,5.87,5.87,0,0,1,.1-1.06l.12-1q.07-.58.12-1.15t.07-1a1.89,1.89,0,0,0,0-.58l-.65.82q-.5.63-1.1,1.44t-1.2,1.68A12.31,12.31,0,0,0,194.3,38l-.77,1.66-.77,1.7q-.58,1.49-1.13,3t-1.13,3a3.12,3.12,0,0,1-.26.6,3.71,3.71,0,0,1-.58.79,2.69,2.69,0,0,1-.94.62,2.63,2.63,0,0,1-1.34.14,3.92,3.92,0,0,1-.77-.12,3.63,3.63,0,0,1-1.1-.48,4,4,0,0,1-1.08-1.06,4.34,4.34,0,0,1-.7-1.85,12.61,12.61,0,0,1-.17-2.09q0-1.37,0-3t.12-3.31q.07-1.7.17-3.14t.17-2.4q.07-1,.07-1.1,0-.86.14-1.9t.22-2q.12-1,.29-1.78a4.49,4.49,0,0,1,.41-1.22,3.11,3.11,0,0,1,.58-.82,3.62,3.62,0,0,1,.7-.55,3.35,3.35,0,0,1,.65-.31,1.54,1.54,0,0,1,.43-.1,7.49,7.49,0,0,1,1.25.26,5,5,0,0,1,1.39.84,5.37,5.37,0,0,1,1.08,1,2.3,2.3,0,0,1,.5,1.37,4.56,4.56,0,0,0,.07.79,2.66,2.66,0,0,1,0,.79q-.1.53-.24,1t-.24,1a10.1,10.1,0,0,0-.22,1.1q-.12.77-.22,1.56t-.24,2a9,9,0,0,1,.6-.72,8.87,8.87,0,0,0,.6-.72,20,20,0,0,1,2.38-2.28,12.2,12.2,0,0,1,2.81-1.7,6.43,6.43,0,0,1,1.82-.48,2.74,2.74,0,0,1,1.87.58,1.58,1.58,0,0,1,.53.74,6,6,0,0,1,.29,1q.1.5.14.94c0,.29,0,.45,0,.48a6,6,0,0,0,.65-1q.46-.79,1.08-1.68t1.32-1.73a4.44,4.44,0,0,1,1.37-1.18,2.59,2.59,0,0,1,1.68-.29,1,1,0,0,1,.72.65,1.6,1.6,0,0,1,.14,1q-.1.48-.29,1.68T208.05,32q-.22,1.39-.41,2.74t-.24,2.11q0,1.49.72,1.58a1.35,1.35,0,0,0,.82-.26,4.24,4.24,0,0,0,1.13-1.1,10.86,10.86,0,0,0,1.2-2.16,17.88,17.88,0,0,0,1-3.38,1.11,1.11,0,0,1,.5-.74A1.17,1.17,0,0,1,213.69,30.56Z"/><path d="M227.23,30.66a1,1,0,0,1,.72.53,1,1,0,0,1,.1.86q0,.24-.31,1.08T227,35.07a23.73,23.73,0,0,1-1.13,2.33,17.25,17.25,0,0,1-1.54,2.33,10.22,10.22,0,0,1-1.92,1.9,5.07,5.07,0,0,1-2.3,1h-.34a5.26,5.26,0,0,1-1,0,9.75,9.75,0,0,1-1.06-.17,3.26,3.26,0,0,1-1.1-.46A8.3,8.3,0,0,1,215,41a7.89,7.89,0,0,1-1.51-1.63,9.33,9.33,0,0,1-1.44-4.08,18.49,18.49,0,0,1,0-3.26q.1-.82.24-1.63a15,15,0,0,1,.38-1.63,23.83,23.83,0,0,1,.91-2.83q.53-1.25,1.39-2.83A18.9,18.9,0,0,1,217.15,20v0l.17-.19.17-.19v0a3.12,3.12,0,0,1,1.73-1.06,3.9,3.9,0,0,1,1.78,0,3.82,3.82,0,0,1,1.42.7,1.75,1.75,0,0,1,.7,1,.46.46,0,0,1,0,.22.46.46,0,0,0,0,.22,7.58,7.58,0,0,1,.07,2.47,14.29,14.29,0,0,1-.55,2.42q-.53,1.68-1.1,3.34t-1.2,3.34a11.53,11.53,0,0,1-.7,1.58q-.41.77-.89,1.54a2.11,2.11,0,0,0-.24,1.13q0,.55.14,1.08t.22.77c.08.26.17.51.26.77a2.51,2.51,0,0,0,.55.82q.41.43,1.13,0a5.74,5.74,0,0,0,.86-.72,1.28,1.28,0,0,0,.24-.29,13.48,13.48,0,0,0,1.2-1.63,20,20,0,0,0,1.05-1.9q.48-1,.87-2a19.36,19.36,0,0,0,.62-1.85,1,1,0,0,1,.53-.72A1.23,1.23,0,0,1,227.23,30.66Zm-9.07-4.13a9.62,9.62,0,0,0-.1,1.37c0,.46,0,.87,0,1.22s.06.83.1,1.25a8.27,8.27,0,0,0,1.05-2.09q.43-1.22.72-2.35t.43-2a9.86,9.86,0,0,0,.14-1.13c0-.74,0-1.17-.17-1.3s-.3-.08-.46.14a3.5,3.5,0,0,0-.53.55,5.07,5.07,0,0,0-.58,1,6.93,6.93,0,0,0-.48,1.46,11.66,11.66,0,0,0-.24,2Z"/></g></g></svg>